<?xml version="1.0"?>
<svg xmlns="http://www.w3.org/2000/svg" id="icons" enable-background="new 0 0 64 64" height="512px" viewBox="0 0 64 64" width="512px"><g><path d="m1 48.999h2c.553 0 1-.447 1-1 0-.552.448-1 1-1h1.132l.878 6.138c.007.05.032.092.047.139.016.053.027.105.051.153.032.065.075.12.119.177.032.041.06.084.098.119.055.051.118.086.183.123.043.024.079.056.125.074.103.041.213.062.327.066.015 0 .026.008.041.008h1.5c1.654 0 3-1.346 3-3v-2.501c0-.275.225-.5.5-.5s.5.225.5.5v2.501c0 1.654 1.346 3 3 3h1.505c.015 0 .026-.008.041-.008.114-.005.225-.025.327-.066.046-.019.082-.05.125-.074.064-.037.129-.072.183-.123.038-.035.065-.078.098-.119.044-.057.087-.111.118-.176.024-.05.036-.102.052-.154.015-.047.04-.089.047-.139l.878-6.14h4.121c.002 0 .003-.001.005-.001.551.003.997.45.997 1.001v2.996c0 1.655 1.347 3.002 3.002 3.002l8 .001h.001.001c1.655-.001 3.001-1.348 3.001-3.003v-2.994c0-.553.449-1.002 1.002-1.002h4.121l.878 6.14c.007.05.032.092.047.139.016.053.027.105.051.153.032.065.075.12.119.177.032.041.06.084.098.119.055.051.118.086.183.123.043.024.079.056.125.074.103.041.213.062.327.066.015 0 .026.008.041.008h1.5c1.654 0 3-1.346 3-3v-2.501c0-.275.225-.5.5-.5s.5.225.5.5v2.501c0 1.654 1.346 3 3 3h1.505c.015 0 .026-.008.041-.008.114-.005.225-.025.327-.066.046-.019.082-.05.125-.074.064-.037.129-.072.183-.123.038-.035.065-.078.098-.119.044-.057.087-.111.118-.176.024-.05.036-.102.052-.154.015-.047.04-.089.047-.139l.878-6.138h1.132c.552 0 1 .448 1 1 0 .553.447 1 1 1h2c.553 0 1-.447 1-1s-.447-1-1-1h-1.185c-.395-1.106-1.413-1.908-2.636-1.981.527-.904.82-1.936.82-3.023 0-3.309-2.691-6-6-6-1.06 0-2.085.282-3.003.823-.918-.541-1.943-.823-3.003-.823-3.309 0-6 2.691-6 6 0 1.079.289 2.104.81 3.002h-2.799c-1.655 0-3.002 1.347-3.002 3.002v2.994c0 .553-.45 1.003-1.003 1.003l-8.002-.001c-.553 0-1.002-.449-1.002-1.002v-2.996c0-1.655-1.347-3.002-3.002-3.002-.004 0-.006.002-.01.002h-2.788c.521-.898.81-1.923.81-3.002 0-3.309-2.691-6-6-6-1.06 0-2.085.282-3.003.823-.918-.541-1.943-.823-3.003-.823-3.309 0-6 2.691-6 6 0 1.088.293 2.119.821 3.022-1.223.073-2.242.875-2.637 1.981h-1.184c-.553 0-1 .447-1 1s.447 1.001 1 1.001zm46.994-11.004c.859 0 1.688.284 2.399.822.357.27.85.27 1.207 0 .711-.538 1.54-.822 2.399-.822 2.206 0 4 1.794 4 4 0 1.271-.583 2.438-1.601 3.202-.021.016-.03.039-.05.057-.047.04-.083.085-.121.134-.028.035-.064.062-.088.101-.013.022-.016.047-.027.069-.026.054-.042.111-.059.17-.006.02-.016.038-.02.058-.006.025-.021.045-.025.07l-.878 6.141h-.638c-.552 0-1-.448-1-1v-2.501c0-1.379-1.121-2.5-2.5-2.5s-2.5 1.121-2.5 2.5v2.501c0 .552-.448 1-1 1h-.633l-.878-6.143c-.004-.025-.02-.045-.025-.07-.004-.02-.014-.038-.02-.058-.017-.059-.032-.116-.059-.17-.012-.022-.015-.048-.027-.069-.023-.039-.061-.066-.089-.103-.037-.047-.074-.092-.119-.132-.004-.003-.006-.007-.009-.009-.017-.015-.024-.034-.042-.048-1.017-.764-1.6-1.93-1.6-3.2.003-2.206 1.797-4 4.003-4zm-37.994 0c.859 0 1.688.284 2.399.822.357.27.85.27 1.207 0 .711-.538 1.54-.822 2.399-.822 2.206 0 4 1.794 4 4 0 1.271-.583 2.438-1.601 3.202-.017.013-.024.031-.04.045-.002.002-.004.005-.006.007-.05.043-.09.091-.13.144-.026.033-.062.059-.083.097-.013.02-.016.043-.025.064-.028.056-.044.115-.062.177-.005.018-.014.034-.019.053-.005.025-.021.046-.025.072l-.878 6.141h-.636c-.552 0-1-.448-1-1v-2.501c0-1.379-1.121-2.5-2.5-2.5s-2.5 1.121-2.5 2.5v2.501c0 .552-.448 1-1 1h-.633l-.878-6.143c-.004-.024-.019-.044-.024-.068-.005-.021-.016-.041-.021-.063-.017-.057-.03-.111-.057-.163-.012-.023-.015-.05-.028-.073-.024-.041-.063-.07-.093-.107-.036-.043-.069-.085-.111-.122-.021-.019-.032-.044-.055-.062-1.017-.764-1.6-1.93-1.6-3.2 0-2.207 1.794-4.001 4-4.001z" data-original="#000000" class="active-path" data-old_color="#000000" fill="#28C3FF"/><path d="m35.497 42.993h1.505c.015 0 .026-.008.041-.008.114-.005.225-.025.327-.066.046-.019.083-.05.125-.074.064-.037.128-.073.183-.123.039-.036.065-.078.098-.119.044-.057.087-.111.118-.176.024-.05.036-.102.052-.154.015-.047.04-.089.047-.139l.947-6.624c1.313-1.142 2.063-2.76 2.063-4.518 0-3.309-2.691-6-6-6-1.06 0-2.085.282-3.003.823-.918-.541-1.943-.823-3.003-.823-3.309 0-6 2.691-6 6 0 1.757.751 3.375 2.063 4.516l.947 6.626c.007.05.032.092.047.139.016.053.027.104.052.153.031.065.074.121.118.177.032.041.06.083.098.119.055.051.118.086.183.123.043.024.079.056.125.074.103.041.213.062.327.066.015 0 .026.008.041.008h1.5c1.654 0 3-1.346 3-3v-2.501c0-.275.225-.5.5-.5s.5.225.5.5v2.501c-.001 1.654 1.345 3 2.999 3zm-3.5-8.001c-1.379 0-2.5 1.121-2.5 2.5v2.501c0 .552-.448 1-1 1h-.633l-.878-6.143c-.004-.029-.022-.053-.029-.081-.022-.099-.049-.196-.101-.285-.068-.115-.157-.216-.263-.295-1.015-.764-1.597-1.928-1.597-3.197 0-2.206 1.794-4 4-4 .859 0 1.688.284 2.399.822.357.27.85.27 1.207 0 .711-.538 1.54-.822 2.399-.822 2.206 0 4 1.794 4 4 0 1.271-.583 2.438-1.601 3.202-.049.037-.076.088-.116.131-.05.053-.105.098-.143.16-.056.094-.085.197-.107.302-.005.023-.021.042-.023.065l-.878 6.141h-.638c-.552 0-1-.448-1-1v-2.501c.002-1.379-1.119-2.5-2.498-2.5z" data-original="#000000" class="active-path" data-old_color="#000000" fill="#28C3FF"/><path d="m63 61.999h-62c-.553 0-1 .447-1 1s.447 1 1 1h62c.553 0 1-.447 1-1s-.447-1-1-1z" data-original="#000000" class="active-path" data-old_color="#000000" fill="#28C3FF"/><path d="m32.199 15.975c-.066-.006-.131-.021-.199-.021s-.133.015-.199.021c-5.421-.109-9.801-4.544-9.801-9.991v-4.983c0-.553-.447-1-1-1s-1 .447-1 1v4.983c0 4.825 2.868 8.982 6.984 10.887-.422.15-.835.317-1.239.503-4.169-2.29-6.744-6.609-6.744-11.39v-4.983c0-.553-.447-1-1-1s-1 .447-1 1v4.983c0 5.101 2.541 9.745 6.726 12.506-4.049 2.689-6.726 7.285-6.726 12.499v2.002c0 .553.447 1 1 1h2.999c.553 0 1-.447 1-1v-2.002c0-5.514 4.486-10 10-10s10 4.486 10 10v2.002c0 .553.447 1 1 1h2.999c.553 0 1-.447 1-1v-2.002c0-5.101-2.541-9.745-6.726-12.506 4.049-2.688 6.726-7.285 6.726-12.499v-4.983c0-.553-.447-1-1-1s-1 .447-1 1v4.983c0 6.322-4.539 11.599-10.528 12.757.012-.096.029-.188.029-.287 0-.248-.047-.483-.115-.709 5.478-1.109 9.615-5.96 9.615-11.761v-4.983c0-.553-.447-1-1-1s-1 .447-1 1v4.983c0 5.447-4.38 9.882-9.801 9.991zm-12.199 15.014v1.002h-.999v-1.002c0-6.32 4.535-11.595 10.521-12.756-.007.074-.022.146-.022.221 0 .271.055.527.135.771-5.489 1.102-9.635 5.957-9.635 11.764zm24.999 0v1.002h-.999v-1.002c0-4.825-2.868-8.982-6.984-10.887.422-.15.835-.316 1.238-.503 4.169 2.291 6.745 6.609 6.745 11.39zm-12.499-12.535c0 .275-.225.5-.5.5s-.5-.225-.5-.5c0-.202.122-.375.295-.453.069-.001.136-.011.205-.011.014 0 .025-.007.039-.008.027 0 .054-.004.08-.004.217.055.381.243.381.476z" data-original="#000000" class="active-path" data-old_color="#000000" fill="#28C3FF"/></g> </svg>
